<svg width="89" height="90" viewBox="0 0 89 90" fill="none" xmlns="http://www.w3.org/2000/svg">
<path d="M23.5234 77.0814L24.9784 77.8087C31.0415 81.4445 37.8316 83.1413 44.622 83.1413C65.9629 83.1413 83.4236 65.6889 83.4236 44.3582C83.4236 34.1778 79.3007 24.2396 72.0257 16.9676C64.7503 9.69572 55.0496 5.57518 44.622 5.57518C23.2811 5.57518 5.82008 23.0275 6.06274 44.6008C6.06274 51.8724 8.24533 58.9021 11.8829 64.9616L12.8528 66.4162L8.97297 80.7175L23.5234 77.0814Z" fill="#00E676"/>
<path d="M76.1482 13.0893C67.9028 4.60564 56.5049 0 44.8643 0C20.1286 0 0.242664 20.1187 0.48498 44.6004C0.48498 52.3571 2.66757 59.8715 6.30544 66.6584L0 89.6859L23.5235 83.626C30.0712 87.2621 37.3463 88.9589 44.622 88.9589C69.1155 88.9589 89.0014 68.8399 89.0014 44.3585C89.0014 32.481 84.3936 21.3307 76.1485 13.0893H76.1482ZM44.8643 81.4448C38.3166 81.4448 31.7688 79.7483 26.191 76.3548L24.7361 75.6275L10.6706 79.2633L14.3081 65.447L13.3382 63.9924C2.66757 46.7826 7.76038 23.997 25.2211 13.3315C42.6818 2.66629 65.2353 7.75668 75.9059 25.209C86.5761 42.6614 81.4833 65.2041 64.023 75.8697C58.4448 79.5054 51.6548 81.4444 44.8643 81.4444V81.4448ZM66.2052 54.5393L63.5377 53.3273C63.5377 53.3273 59.6578 51.6305 57.2326 50.4184C56.9899 50.4184 56.7476 50.1759 56.5049 50.1759C55.7773 50.1759 55.2923 50.4184 54.8073 50.661C54.8073 50.661 54.565 50.9032 51.1698 54.7815C50.9271 55.2663 50.4421 55.5088 49.9572 55.5088H49.7145C49.4722 55.5088 48.9872 55.2663 48.7445 55.0241L47.5319 54.5393C44.8643 53.3273 42.4394 51.8727 40.4992 49.9337C40.0142 49.4489 39.2865 48.9642 38.8016 48.4794C37.104 46.7826 35.4064 44.8433 34.1941 42.6617L33.9514 42.177C33.7091 41.9344 33.7091 41.6922 33.4664 41.2075C33.4664 40.7227 33.4664 40.238 33.7091 39.9954C33.7091 39.9954 34.6791 38.7834 35.4064 38.0564C35.8917 37.5714 36.134 36.8444 36.619 36.3597C37.104 35.6324 37.3466 34.6629 37.104 33.9356C36.8616 32.7235 33.9514 26.1789 33.2241 24.7246C32.7388 23.9973 32.2542 23.7551 31.5265 23.5126H28.8589C28.3736 23.5126 27.889 23.7551 27.4037 23.7551L27.161 23.9973C26.676 24.2399 26.191 24.7246 25.7061 24.9668C25.2211 25.4519 24.9784 25.9363 24.4934 26.4214C22.7958 28.603 21.8259 31.2693 21.8259 33.9356C21.8259 35.8746 22.3108 37.8139 23.0385 39.5107L23.2811 40.238C25.4637 44.8433 28.3736 48.9642 32.2542 52.6L33.2241 53.5695C33.9514 54.2968 34.6791 54.7815 35.164 55.5085C40.2569 59.8719 46.077 63.0229 52.6247 64.7197C53.3524 64.9619 54.3223 64.9619 55.05 65.2045H57.4749C58.6875 65.2045 60.1424 64.7197 61.1128 64.235C61.8401 63.7502 62.325 63.7502 62.81 63.2655L63.2953 62.7804C63.7803 62.2956 64.2653 62.0534 64.7503 61.5687C65.2353 61.0839 65.7202 60.5992 65.9629 60.1141C66.4479 59.1446 66.6902 57.9326 66.9329 56.7209V55.0241C66.9329 55.0241 66.6902 54.7815 66.2052 54.5393Z" fill="white"/>
</svg>
